<svg width="114" height="113" viewBox="0 0 114 113" fill="none" xmlns="http://www.w3.org/2000/svg">
<path d="M112.606 110.439C112.263 109.165 112.035 108.103 111.692 107.147C111.236 105.342 110.893 104.068 110.436 102.794C108.61 98.1222 106.669 93.4503 104.842 88.7785C102.216 82.3015 99.5896 75.7185 97.0777 69.1354C88.6286 47.0501 77.2109 25.2834 63.3954 4.36618C61.5686 1.71171 59.9701 0.437561 58.1433 0.437561C58.1433 0.437561 58.1433 0.437561 58.0291 0.437561C56.2023 0.437561 54.4896 1.81789 52.8911 4.57854C50.6076 8.40098 48.324 12.4358 46.0405 17.0015C41.3592 26.1329 36.5638 35.2643 31.8825 44.5018C25.2603 57.2433 18.5238 70.5157 11.7873 83.4695C10.303 86.2302 8.70456 88.9908 7.10608 91.7515C5.39342 94.6183 3.68076 97.4851 2.19646 100.458C0.826331 103.006 0.597977 104.918 1.39722 106.404C2.19646 107.891 3.90911 108.952 6.87772 109.696L8.70456 110.12C13.5 111.288 18.4096 112.563 23.3192 112.563C44.7845 112.563 65.9073 112.35 88.2861 112.032C95.9359 111.925 103.7 111.819 111.578 111.713H113.062L112.606 110.439ZM63.2813 71.4713C61.5686 72.1084 60.0843 73.9134 59.5134 75.2937C55.7456 83.8942 52.777 91.0082 50.2651 97.5913C49.3516 100.033 47.9815 100.989 45.2413 101.201C42.1585 101.414 39.1899 101.838 35.9929 102.157C35.3078 102.263 34.5086 102.369 33.7094 102.369L55.9739 44.8204C57.5724 47.3687 59.1709 49.917 60.7694 52.5714C71.6162 70.3033 82.9197 88.5661 97.9911 105.024H82.1205L79.1519 98.5469C75.384 90.265 71.8445 82.4077 68.0767 74.4443C67.5058 73.064 64.8797 70.9404 63.2813 71.4713ZM63.0529 42.3783C62.5962 41.635 62.0253 40.7856 61.5686 40.0423C60.6552 38.5558 59.7418 37.1755 58.7142 35.7952C57.9149 34.8396 56.8873 34.2025 55.8597 33.5654C55.403 33.353 55.0605 33.0345 54.6038 32.8221L53.6904 32.1851L53.0053 33.0345C52.6628 33.353 52.4344 33.7778 52.0919 34.0963C51.2926 34.9457 50.4934 35.9013 50.0367 36.9631C48.8949 40.3609 47.7532 43.8648 46.7256 47.1563C45.1271 52.2529 43.4144 57.4557 41.4734 62.5523C37.4772 72.8516 33.3668 82.9386 29.0281 93.5565C27.3154 97.6975 25.6028 101.838 23.8901 106.086L9.61797 103.431L58.0291 10.206C76.9825 36.2199 87.601 65.4191 97.9911 93.7689L98.2195 94.5121C97.4202 93.6627 96.7352 92.8133 96.1643 91.8577C87.0301 78.3729 77.8959 64.5697 68.9901 51.1911L63.0529 42.3783ZM64.423 83.5757L71.0453 99.2902H57.4582L64.423 83.5757Z" fill="#343434"/>
</svg>
