<svg width="114" height="113" viewBox="0 0 114 113" fill="none" xmlns="http://www.w3.org/2000/svg">
<path d="M1.03232 56.7881C1.03232 40.8408 1.12714 24.8935 0.9375 8.94629C0.9375 4.66331 2.54941 3.56979 7.00588 3.38753C24.2628 2.74964 41.425 1.20048 58.682 0.653716C73.9477 0.19808 89.2135 0.562589 104.479 0.83597C110.548 0.927098 113.013 3.20528 113.013 9.03742C113.108 29.7233 113.108 50.4092 112.634 71.095C112.349 81.848 111.306 92.5099 110.263 103.263C109.694 109.368 107.703 110.735 101.445 110.918C71.4825 111.464 41.6146 112.102 11.652 112.558C3.11833 112.649 1.88568 111.464 1.88568 103.354C1.79087 87.8624 1.88568 72.3708 1.88568 56.8792C1.60123 56.7881 1.31677 56.7881 1.03232 56.7881ZM66.3623 58.7929C66.3623 58.4284 66.2674 57.9727 66.2674 57.6082C64.4659 57.6082 62.6643 57.5171 60.9576 57.6082C45.1229 58.9751 29.1934 60.4332 13.3587 61.7089C11.8416 61.8001 10.2297 60.7977 8.71262 60.2509C9.85044 59.1574 10.7038 57.5171 12.0313 57.0615C15.824 55.6945 19.9012 54.8744 23.6939 53.872C23.5043 49.4068 23.5043 49.3156 27.4867 48.3132C32.9861 46.8552 38.4856 45.6706 45.0281 44.0303C38.3908 42.4811 35.4514 39.565 36.21 35.5554C36.7789 32.6394 38.2012 29.8144 39.5286 26.3516C36.9685 26.3516 34.5981 26.625 32.4172 26.2605C30.6157 25.8959 29.0038 24.7113 27.297 23.8912C28.8141 22.9799 30.2364 21.5218 31.8483 21.2485C37.253 20.3372 42.6576 19.8816 48.1571 19.3348C48.1571 18.8792 48.0623 18.5146 48.0623 18.059C45.7866 18.1501 43.4162 18.5146 41.1405 18.4235C39.5286 18.3324 38.0115 17.6034 36.4944 17.2389C37.9167 16.2365 39.4338 14.3228 40.8561 14.4139C54.5099 14.505 68.1638 14.8696 81.8177 15.3252C82.671 15.3252 84.4726 17.4211 84.1881 17.8768C82.3866 21.613 81.4384 26.1693 75.5596 26.0782C74.1374 26.0782 72.6203 26.7161 71.1032 26.9895C74.0426 27.7185 76.7923 27.2629 79.542 27.354C81.3436 27.354 83.1451 28.1741 84.9467 28.6298C84.0933 30.0878 83.24 31.5458 82.3866 32.9127C85.1363 34.4619 88.0757 36.1022 91.6788 38.107C87.3171 42.9367 80.6798 41.0231 76.0337 43.848C81.7229 44.3036 87.412 44.1214 93.1011 44.3948C94.5233 44.4859 95.9456 45.6706 97.3679 46.3996C96.0404 47.2197 94.713 48.5866 93.1959 48.7689C88.1705 49.4068 83.0503 49.589 77.9301 50.0447C73.284 50.5003 68.7327 51.1382 64.1814 51.6849C64.1814 52.1406 64.2763 52.5962 64.2763 53.0519C65.983 53.0519 67.7845 52.9607 69.4913 53.0519C80.0161 53.4164 90.541 53.5986 101.066 54.1454C102.488 54.2365 103.816 55.6945 105.143 56.5147C103.816 57.426 102.583 58.6106 101.066 59.1574C99.928 59.613 98.5057 59.4308 97.1783 59.613C92.7218 60.1598 88.3601 60.7977 83.9037 61.3444C83.9037 61.8001 83.9985 62.2557 83.9985 62.7113C89.2135 62.7113 94.4285 62.6202 99.6435 62.8025C100.687 62.8936 101.73 64.2605 102.773 65.0806C101.824 65.7185 100.971 66.9032 99.928 66.9943C96.3249 67.5411 92.7218 67.6322 89.1187 68.0878C83.6192 68.7257 78.2146 69.3636 72.7151 70.0015C79.542 71.6418 86.1793 72.0974 92.9114 72.9176C94.4285 73.0998 95.756 74.4667 97.0835 75.378C95.6612 76.3804 94.3337 77.8384 92.7218 78.2941C90.1617 79.1142 87.3171 79.3876 84.6622 79.8432C84.9467 80.2078 85.326 80.6634 85.6104 81.0279C84.283 82.5771 83.24 84.8552 81.5332 85.402C76.2234 87.3157 70.7239 88.5915 65.3193 90.1406C66.4571 90.9608 67.7845 90.7785 68.5431 91.3253C69.8705 92.3277 71.6721 93.8768 71.5773 94.9704C71.3876 96.7929 70.0602 99.709 68.7327 99.9824C59.8198 101.714 52.1395 99.0711 45.8815 92.6922C43.8903 90.6874 41.7094 88.7737 39.6234 86.7689C37.4426 85.9488 34.6929 86.2221 31.9431 86.4044C25.5903 87.0423 19.1427 87.7713 12.7898 88.1358C11.652 88.2269 10.4193 87.1334 9.18671 86.5867C10.2297 85.5843 10.9883 84.1262 12.2209 83.5795C13.8328 82.8504 15.7292 82.7593 17.5307 82.5771C28.5297 81.5747 39.4338 80.6634 50.4328 79.5699C57.4493 78.8408 64.4659 78.0207 72.6203 77.0183C71.1032 76.0159 70.8187 75.7425 70.6291 75.7425C50.2431 77.0183 29.952 78.1118 9.56598 79.2054C6.62661 79.3876 6.15252 81.0279 6.24734 83.3972C6.43697 89.5939 6.72143 95.7905 6.34215 101.896C6.0577 106.726 7.95407 108.184 12.8846 108.093C41.9939 107.455 71.1032 106.908 100.212 106.452C103.721 106.361 105.333 105.177 105.522 101.805C106.186 91.2341 107.513 80.6634 107.798 70.0926C108.272 50.318 108.177 30.6346 108.367 10.86C108.367 6.94149 106.66 5.21008 102.393 5.3012C82.7659 5.75684 63.0436 5.93909 43.3214 6.48586C30.9001 6.85037 18.4789 7.85276 6.24734 8.58178C6.24734 28.083 6.24734 47.402 6.24734 66.812C26.8229 64.0782 46.64 61.4356 66.3623 58.7929ZM46.3556 68.5435C35.3566 67.4499 8.23852 71.3684 5.48879 74.5579C19.9012 72.4619 33.081 70.5483 46.3556 68.5435Z" fill="#343434"/>
</svg>
