<svg width="114" height="113" viewBox="0 0 114 113" fill="none" xmlns="http://www.w3.org/2000/svg">
<path d="M20.3704 39.1223C23.6689 25.8592 26.8759 23.3329 36.2218 26.1299C36.405 23.6938 36.4967 21.348 36.8632 19.0021C37.7794 12.957 40.6199 11.0623 46.6672 12.145C47.8584 12.3255 49.5993 12.0548 50.5155 11.333C53.8141 8.80668 57.021 9.07736 60.961 11.4232C60.5945 6.73151 62.1521 3.4834 66.2753 1.85935C70.9483 0.054848 75.7128 -0.125602 80.3858 1.85935C85.242 3.93453 86.9829 6.3706 86.5248 11.5134C86.3415 14.13 87.0745 15.1224 89.5485 15.8442C92.114 16.566 94.5879 17.9194 96.8786 19.2728C104.117 23.6938 105.4 27.5735 102.193 35.2426C107.141 38.7614 114.746 40.6561 112.73 49.1373C111.722 53.4681 107.324 56.2651 102.285 56.4455C101.552 54.5508 101.918 53.4681 104.117 52.5659C110.623 50.1298 111.264 45.799 105.766 41.5584C101.643 38.4005 99.6274 38.1298 95.1377 40.6561C88.5406 44.3554 81.3021 45.6185 73.8803 46.611C71.6813 46.8817 69.3906 46.9719 67.2832 47.6937C65.5423 48.3253 64.0763 49.6786 62.5186 50.7613C62.7019 51.032 62.8851 51.2125 63.16 51.4832C72.964 52.1147 82.6764 52.7463 92.3889 53.3779C92.6637 57.0771 90.7396 57.1673 88.3573 56.8967C82.1267 56.2651 75.9877 55.6335 69.7571 55.0922C68.566 55.0019 67.2832 55.2726 66.0921 55.3628C65.9088 55.814 65.8172 56.2651 65.6339 56.7162C69.299 58.5207 72.8724 60.6861 76.8124 61.9493C82.4016 63.7538 88.2657 64.656 93.8549 66.2801C96.6037 67.0921 99.3525 68.4455 101.826 69.9793C109.34 74.4905 111.264 82.0695 107.324 89.8288C100.452 103.543 89.5485 111.212 73.8803 112.475C60.1363 113.558 51.9816 104.445 55.4634 91.3626C55.9215 89.6484 56.3796 88.0243 56.9294 86.31C58.5787 81.2574 57.021 77.7387 52.0732 75.7537C51.4318 75.483 50.149 75.7537 49.6909 76.2951C47.1254 79.1823 44.6514 82.0695 42.3608 85.1371C41.811 85.8589 42.0859 87.1221 42.0859 88.1145C42.1775 90.9115 42.544 93.7085 42.3608 96.4153C42.0859 100.385 40.8031 103.994 36.7716 105.708C32.6484 107.423 28.4335 106.972 25.135 104.084C21.928 101.287 19.4541 97.6784 16.6137 94.4303C15.5142 93.1671 14.7812 91.5431 13.4984 90.7311C6.16827 86.31 2.68647 79.7236 1.49533 71.6033C0.579063 65.1071 0.670678 58.6109 2.68646 52.2952C5.71014 43.4531 10.658 39.6637 20.3704 39.1223ZM25.2266 57.3478C22.4778 59.5132 19.729 61.3177 17.3467 63.4831C16.2472 64.4756 15.2393 66.0996 15.056 67.6334C13.7733 76.2951 21.928 85.5882 30.9074 85.8589C36.5883 86.0394 37.5046 85.1371 37.1381 79.7236C37.1381 79.1823 37.0464 78.5507 37.0464 78.0093C36.9548 72.1447 39.7036 69.5282 45.6593 69.7086C47.1254 69.7086 48.7746 69.6184 50.0574 69.077C59.1284 65.468 66.0004 70.4304 65.8172 80.1747C65.8172 81.5281 66.5502 83.4228 67.6497 84.1446C72.1394 87.3025 76.8124 90.2799 81.5769 92.9867C82.5848 93.6183 84.6006 93.528 85.7001 92.8965C89.8233 90.8213 91.8391 86.31 90.8312 82.0695C89.7317 77.1071 86.3415 74.0394 81.6686 73.4981C79.9277 73.3176 78.1868 73.2274 76.4458 72.9567C70.5817 72.3251 64.626 71.5131 60.3196 67.0019C58.3954 64.9267 56.4713 64.4756 53.9057 64.656C43.5519 65.468 33.3814 65.7387 25.2266 57.3478ZM60.8693 84.9567C59.9531 89.4679 58.7619 93.1671 58.5787 96.8664C58.2122 103.633 62.1521 108.054 69.0241 108.866C76.3542 109.678 83.3178 107.964 89.7317 104.626C91.9307 103.543 93.7633 101.829 96.1456 100.114C92.2972 99.4829 89.2736 98.6709 86.2499 98.5807C83.1346 98.4904 80.0193 99.122 76.9956 99.4829C72.1394 100.024 67.5581 99.0318 64.8093 94.8814C63.0684 92.2649 62.427 89.0168 60.8693 84.9567ZM20.0955 43.1824C13.4984 42.4606 9.74172 44.8967 6.99292 51.5734C3.41949 60.1448 3.69436 68.8064 6.71804 77.3778C7.63431 79.9041 9.28358 82.0695 10.5664 84.4153C11.391 83.6033 11.391 83.1522 11.2994 82.7913C7.72593 70.9718 10.658 61.4079 20.9202 54.0095C21.5615 53.5583 22.1113 52.2952 21.928 51.4832C21.4699 48.7764 20.7369 46.0696 20.0955 43.1824ZM68.1078 30.2803C70.4901 30.6412 71.3148 29.0171 71.8645 27.1224C72.5975 24.4156 73.2389 21.7089 73.8803 19.0021C74.7049 15.5736 76.5375 13.3179 80.569 13.7691C82.8597 14.0397 83.776 12.7766 83.3178 10.8819C82.8597 9.16758 82.1267 7.09241 80.7523 6.09993C77.3621 3.4834 73.3306 3.39318 69.299 4.5661C65.0842 5.82925 64.0763 7.54353 64.9009 11.8743C65.8172 17.9194 66.9167 23.8743 68.1078 30.2803ZM100.819 28.4758C100.544 27.9344 100.177 26.8517 99.5358 25.9494C96.0539 21.7089 91.1977 19.6337 86.0666 18.3705C85.4252 18.1901 84.2341 18.8217 83.776 19.363C81.4853 22.16 79.2863 24.957 77.1789 27.9344C75.0714 30.9118 75.5296 31.9043 79.1946 32.3554C84.509 32.8968 89.915 33.1675 95.3209 33.7088C98.5279 34.0697 100.727 32.3554 100.819 28.4758ZM49.2328 42.5509C49.7825 41.4682 50.4239 40.6561 50.6988 39.7539C52.623 32.2652 51.5234 24.957 48.8663 18.0096C48.3165 16.6563 45.2012 15.8442 43.1854 15.6638C42.4524 15.5736 40.8947 17.739 40.6199 19.0021C38.3292 28.3855 42.2691 35.784 49.2328 42.5509ZM39.9785 41.017C39.9785 37.1374 36.5883 30.9118 33.1065 29.0171C32.007 28.4758 30.1744 28.1149 29.2582 28.6562C25.6847 30.9118 24.5852 34.7013 24.402 38.4907C24.3103 39.8441 26.4177 41.2877 27.7005 42.6411C28.4335 43.4531 29.4414 44.1749 30.2661 44.9869C31.7321 46.5208 32.74 48.235 35.4888 46.8817C38.2376 45.6185 39.9785 44.0847 39.9785 41.017ZM93.1219 36.8667C90.8312 36.6862 88.5406 36.4156 86.1583 36.2351C81.4853 35.9644 76.904 36.4156 72.5975 33.6186C71.498 32.8968 67.833 33.8893 67.1916 35.0622C65.6339 37.8592 65.2674 41.2877 64.2595 44.7163C74.3384 42.6411 84.3257 42.7313 93.1219 36.8667ZM38.6957 89.2875C32.4651 90.9115 26.601 92.4453 20.0039 94.1596C22.7527 96.8664 25.135 99.8438 28.067 102.009C31.6405 104.626 36.405 103.723 37.8711 100.475C39.5204 96.5957 39.7036 92.6258 38.6957 89.2875ZM59.7698 51.2125C59.3117 50.9418 58.9452 50.7613 58.487 50.4907C56.6545 51.5734 54.6387 52.5659 52.8978 53.829C47.217 57.8891 41.078 58.5207 35.4888 55.0019C32.8316 53.2877 31.0907 53.9192 28.7084 56.1749C30.9991 57.5282 32.8316 59.3327 34.939 59.6936C40.1617 60.6861 45.5677 61.047 50.882 61.4981C54.089 61.7688 57.3875 61.859 57.4792 57.1673C57.4792 56.5358 58.4871 55.9042 58.7619 55.1824C59.2201 53.829 59.4033 52.5659 59.7698 51.2125ZM60.3196 41.9193C60.5028 42.0095 60.6861 42.0997 60.8693 42.0997C61.1442 41.6486 61.5107 41.1975 61.694 40.7464C64.7177 33.3479 62.2437 25.9495 61.3275 18.6412C61.1442 16.8367 59.0368 14.8518 57.2959 13.5886C54.7304 11.6939 52.0732 13.1375 52.5313 16.2051C52.9895 18.9119 53.9974 21.7991 55.555 24.1449C58.5787 28.4758 60.7777 32.8968 60.5028 38.3103C60.5945 39.4832 60.4112 40.6561 60.3196 41.9193ZM88.4489 95.7837C91.1977 95.9641 92.7554 96.2348 94.4047 96.1446C99.9939 95.7837 102.193 92.8062 101.002 87.483C100.086 83.3326 97.2451 80.5356 93.2135 77.1973C95.4126 84.5055 94.7712 90.4604 88.4489 95.7837ZM84.4174 68.0846C92.5721 72.7763 101.368 76.5657 104.942 86.31C106.408 81.889 106.224 78.0093 102.834 74.9417C97.7032 70.3402 91.1977 68.8966 84.4174 68.0846ZM51.3402 50.4907C47.8584 46.1599 41.9026 46.611 37.0464 51.4832C41.078 54.9117 46.2091 54.641 51.3402 50.4907ZM78.8281 69.3477C74.9798 65.0169 69.8487 63.5733 63.2516 64.7462C66.4586 67.9943 73.8803 70.1597 78.8281 69.3477ZM66.0921 87.5732C66.1837 94.0694 72.1394 97.8588 77.9119 95.3325C73.9719 92.716 70.2152 90.2799 66.0921 87.5732ZM54.3639 47.423C57.2959 42.19 58.1205 37.1374 55.9215 31.363C54.7304 36.4156 53.6308 40.9268 52.4397 45.9794C52.5313 46.0696 53.356 46.7012 54.3639 47.423ZM25.3182 89.107C21.7448 86.4003 18.1714 83.7837 14.8728 81.2574C16.0639 88.9266 18.0797 90.3702 25.3182 89.107ZM25.5931 44.626C25.135 44.9869 24.5852 45.3478 24.1271 45.7087C24.5852 47.423 25.0433 49.0471 25.5931 51.1223C26.9675 50.4005 27.9754 49.9493 29.5331 49.1373C27.9754 47.423 26.7843 46.0696 25.5931 44.626ZM45.2012 73.5883C40.9864 73.2274 39.7036 75.2123 41.4445 79.7236C42.7273 77.468 43.9184 75.5732 45.2012 73.5883Z" fill="#343434"/>
</svg>
