<svg width="114" height="113" viewBox="0 0 114 113" fill="none" xmlns="http://www.w3.org/2000/svg">
<path d="M39.2123 82.9565C37.2272 77.6718 35.0437 72.0636 32.8601 66.4553C32.5624 66.5632 32.3639 66.6711 32.0661 66.7789C33.3564 71.2008 34.8452 75.5148 35.9369 80.0445C36.9295 84.3585 40.2048 88.4568 37.3265 94.7121C35.9369 92.3394 34.9444 90.8295 34.2496 89.2118C29.3863 77.6718 24.5229 66.1318 19.6596 54.5918C19.0641 53.1898 18.2701 51.7877 16.7813 50.7092C17.2775 52.4348 17.7738 54.2683 18.3693 55.9939C21.9424 64.9455 25.5155 73.7892 29.0885 82.6329C29.5848 83.8192 30.2796 85.1134 30.2796 86.4076C30.2796 87.7019 29.684 88.8882 29.287 90.1824C28.3938 89.4275 27.1035 88.9961 26.6072 87.9176C23.5304 80.9073 20.5529 73.897 17.5753 66.8868C17.1783 66.024 16.682 65.1612 15.5903 64.6219C17.476 69.6909 19.2626 74.7598 21.1484 79.8288C21.6446 81.123 22.2401 82.3094 22.4387 83.6036C22.6372 85.3292 22.5379 87.0548 22.6372 88.6725C21.1484 88.4568 19.7588 88.2411 17.476 87.9176C18.1708 89.3196 18.4686 90.8295 19.2626 91.8002C28.6915 102.046 39.7085 108.193 53.3061 108.193C56.7799 108.193 60.2537 108.841 64.5215 109.272C59.956 113.155 48.0457 113.478 43.9764 110.89C42.1898 109.811 40.0063 109.595 37.922 109.056C36.731 108.733 35.3414 108.948 34.3489 108.409C16.0865 98.9183 4.47401 83.7114 1.3972 61.8178C-0.488594 48.3365 3.48149 36.2573 12.3149 26.6586C26.905 10.9124 44.1749 0.990211 65.0178 0.45096C100.054 -0.411843 123.874 39.8163 108.093 73.7892C102.535 85.7606 94.4957 96.4377 82.2877 102.046C77.3251 104.311 72.6602 107.115 67.5984 109.811C67.1021 108.086 66.7051 106.791 66.3081 105.605C71.3699 102.801 76.3326 100.32 81.0967 97.4084C82.0892 96.8691 83.0817 95.3592 83.181 94.1729C83.6772 88.349 78.2184 51.1406 75.1415 44.2382C75.1415 47.3658 75.1415 49.6307 75.1415 52.0034C75.1415 66.0239 75.2408 80.0445 75.1415 94.1729C75.1415 95.6828 75.1415 97.3006 74.6453 98.5948C74.3475 99.3497 72.4617 100.212 72.164 99.9968C70.0797 97.9476 67.2014 95.8985 66.4073 93.3101C62.9335 82.5251 60.0552 71.4165 56.4821 60.5236C57.5739 70.8772 60.75 81.123 57.2762 92.3394C51.9165 75.9462 46.7554 60.3079 41.6936 44.5617C41.1973 44.6696 40.6018 44.8853 40.1055 44.9931C42.2891 55.2389 44.5719 65.4847 46.5569 75.0834C44.1749 77.8875 41.7928 80.2602 39.2123 82.9565ZM64.2238 71.2008C64.5216 71.2008 64.7201 71.0929 65.0178 71.0929C65.0178 70.0144 65.1171 68.8281 64.9186 67.7496C62.5365 51.2485 60.0552 34.7474 57.5739 18.2463C57.3754 16.9521 56.9784 15.55 57.0776 14.2558C57.1769 13.393 57.8717 12.2066 58.4672 11.9909C59.0627 11.8831 60.2537 12.638 60.5515 13.393C61.147 14.6872 61.4447 16.1971 61.7425 17.5992C64.3231 29.6784 66.8044 41.7576 69.2857 53.8369C69.4842 55.0232 69.8812 56.1017 70.2782 57.2881C70.9729 55.6703 70.9729 54.1604 70.9729 52.7584C70.5759 43.3754 70.1789 33.9924 69.9804 24.5016C69.9804 23.2074 71.1714 21.8053 71.767 20.5111C72.7595 21.4818 73.9505 22.2367 74.7445 23.4231C75.4393 24.5016 75.737 25.9036 76.0348 27.1978C78.5161 38.8457 80.8982 50.4935 83.3795 62.1413C83.7765 64.1905 84.2727 66.3475 84.6697 68.3967C85.4638 66.8868 85.563 65.3768 85.563 63.9748C85.563 51.6799 85.563 39.4928 85.6623 27.1978C85.6623 24.6094 84.372 20.619 87.9451 20.1876C89.1361 19.9719 91.6174 23.8545 92.2129 26.2272C95.2897 37.6593 98.0688 49.1993 100.848 60.7393C101.84 65.1611 102.535 69.583 103.428 74.2206C104.024 73.6813 104.322 73.5735 104.421 73.3578C113.552 50.8171 108.689 21.8053 83.578 9.29468C64.4223 -0.303996 46.8547 6.70627 29.8826 17.2756C29.0885 17.707 28.3938 19.6483 28.6915 20.619C30.3788 26.335 32.3639 31.9432 34.1504 37.5515C34.9444 36.2573 34.7459 35.1788 35.0437 34.316C35.5399 32.5904 36.334 31.0804 36.9295 29.4627C38.2197 30.5412 40.1055 31.404 40.8003 32.8061C42.5868 36.473 43.9764 40.4634 45.4651 44.2382C46.9539 48.0129 48.3435 51.8956 49.733 55.6703C50.2293 53.8369 50.0307 52.2191 49.733 50.6014C48.3435 40.8948 46.7554 31.1883 45.4651 21.3739C45.2666 20.0797 46.3584 18.5698 46.7554 17.1678C47.7479 18.2463 49.2367 19.1091 49.6337 20.4033C51.6188 26.7664 53.4053 33.1296 55.2911 39.6006C58.4672 50.1699 61.3455 60.7393 64.2238 71.2008ZM88.5406 93.4179C94.2972 88.4568 99.7561 83.1721 98.8628 75.7305C97.2748 62.7884 93.9002 50.0621 91.3196 37.2279C91.2204 36.9044 90.8234 36.6887 90.5256 36.3651C89.8309 55.2389 89.2353 73.897 88.5406 93.4179ZM20.0566 25.1487C24.7215 36.0416 29.1878 46.3952 33.5549 56.641C33.8526 56.5331 34.1504 56.4253 34.4482 56.3174C31.1728 44.8853 27.8975 33.3453 24.4237 21.3739C22.2401 23.2074 20.7514 24.5016 20.0566 25.1487ZM7.55083 48.2286C7.05457 48.2286 6.65756 48.2286 6.1613 48.2286C4.37476 56.1017 5.16877 63.7591 7.45157 71.3086C7.84858 71.3086 8.14634 71.3086 8.54335 71.2008C8.24559 63.5434 7.84858 55.886 7.55083 48.2286ZM21.2476 48.5522C21.5454 48.4443 21.7439 48.3365 22.0416 48.2286C20.3544 41.7576 18.7663 35.2866 17.079 28.8156C16.682 28.7077 16.3843 28.5999 15.9873 28.492C15.3917 30.4333 13.903 32.9139 14.4985 34.4238C16.3843 39.2771 18.9648 43.8068 21.2476 48.5522Z" fill="#343434"/>
</svg>
